# Blender v3.3.0 OBJ File: ''
# www.blender.org
mtllib untitled.mtl
o Plane_Plane.001
v -0.116100 -12.089099 -35.076302
v -0.116100 9.093302 -38.811302
v -0.116100 2.465998 47.470200
v -0.116100 2.465998 47.470200
v -0.115200 -4.368001 7.650900
v -1.453200 -2.261701 20.609400
v -0.116100 2.465998 47.470200
v -22.854301 6.243301 -5.894400
v -1.293900 3.456600 0.172200
v -0.116100 2.465998 47.470200
v -0.116100 9.093302 -38.811302
v -22.854301 8.540401 -38.713799
v -0.116100 2.465998 47.470200
v -22.854301 8.540401 -38.713799
v -22.854301 6.243301 -5.894400
v -1.293900 3.456600 0.172200
v -0.115200 -4.368001 7.650900
v -0.116100 2.465998 47.470200
v 0.116100 -12.089099 -35.076302
v 0.116100 2.465998 47.470200
v 0.116100 9.093302 -38.811302
v 0.116100 2.465998 47.470200
v 1.453200 -2.261701 20.609400
v 0.115200 -4.368001 7.650900
v 0.116100 2.465998 47.470200
v 1.293900 3.456600 0.172200
v 22.854301 6.243301 -5.894400
v 0.116100 2.465998 47.470200
v 22.854301 6.243301 -5.894400
v 22.854301 8.540401 -38.713799
v 0.116100 2.465998 47.470200
v 22.854301 8.540401 -38.713799
v 0.116100 9.093302 -38.811302
v 1.293900 3.456600 0.172200
v 0.116100 2.465998 47.470200
v 0.115200 -4.368001 7.650900
v -0.118800 -12.089099 -35.076302
v -0.116100 2.442298 47.474403
v -0.117900 9.076202 -38.808300
v -0.116100 2.442298 47.474403
v -1.453200 -2.285401 20.613602
v -0.113400 -4.350000 7.647600
v -0.116100 2.442298 47.474403
v -1.293600 3.480600 0.168000
v -22.854301 6.219601 -5.890199
v -0.116100 2.442298 47.474403
v -22.854301 6.219601 -5.890199
v -22.854301 8.516401 -38.709599
v -0.116100 2.442298 47.474403
v -22.854301 8.516401 -38.709599
v -0.117900 9.076202 -38.808300
v -1.293600 3.480600 0.168000
v -0.116100 2.442298 47.474403
v -0.113400 -4.350000 7.647600
v 0.118800 -12.089099 -35.076302
v 0.117900 9.076202 -38.808300
v 0.116100 2.442298 47.474403
v 0.116100 2.442298 47.474403
v 0.113400 -4.350000 7.647600
v 1.453200 -2.285401 20.613602
v 0.116100 2.442298 47.474403
v 22.854301 6.219601 -5.890199
v 1.293600 3.480600 0.168000
v 0.116100 2.442298 47.474403
v 0.117900 9.076202 -38.808300
v 22.854301 8.516401 -38.709599
v 0.116100 2.442298 47.474403
v 22.854301 8.516401 -38.709599
v 22.854301 6.219601 -5.890199
v 1.293600 3.480600 0.168000
v 0.113400 -4.350000 7.647600
v 0.116100 2.442298 47.474403
v -22.854301 8.540401 -38.713799
v -0.116100 9.093302 -38.811302
v -0.117900 9.076202 -38.808300
v -22.854301 8.540401 -38.713799
v -0.117900 9.076202 -38.808300
v -22.854301 8.516401 -38.709599
v -1.453200 -2.261701 20.609400
v -0.115200 -4.368001 7.650900
v -0.113400 -4.350000 7.647600
v -1.453200 -2.261701 20.609400
v -0.113400 -4.350000 7.647600
v -1.453200 -2.285401 20.613602
v -0.116100 2.465998 47.470200
v -1.453200 -2.261701 20.609400
v -1.453200 -2.285401 20.613602
v -0.116100 2.465998 47.470200
v -1.453200 -2.285401 20.613602
v -0.116100 2.442298 47.474403
v -0.116100 -12.089099 -35.076302
v -0.116100 2.465998 47.470200
v -0.116100 2.442298 47.474403
v -0.116100 -12.089099 -35.076302
v -0.116100 2.442298 47.474403
v -0.118800 -12.089099 -35.076302
v -0.115200 -4.368001 7.650900
v -1.293900 3.456600 0.172200
v -1.293600 3.480600 0.168000
v -0.115200 -4.368001 7.650900
v -1.293600 3.480600 0.168000
v -0.113400 -4.350000 7.647600
v -22.854301 6.243301 -5.894400
v -22.854301 8.540401 -38.713799
v -22.854301 8.516401 -38.709599
v -22.854301 6.243301 -5.894400
v -22.854301 8.516401 -38.709599
v -22.854301 6.219601 -5.890199
v -0.116100 9.093302 -38.811302
v -0.116100 -12.089099 -35.076302
v -0.118800 -12.089099 -35.076302
v -0.116100 9.093302 -38.811302
v -0.118800 -12.089099 -35.076302
v -0.117900 9.076202 -38.808300
v -1.293900 3.456600 0.172200
v -22.854301 6.243301 -5.894400
v -22.854301 6.219601 -5.890199
v -1.293900 3.456600 0.172200
v -22.854301 6.219601 -5.890199
v -1.293600 3.480600 0.168000
v 0.116100 9.093302 -38.811302
v 22.854301 8.540401 -38.713799
v 22.854301 8.516401 -38.709599
v 0.116100 9.093302 -38.811302
v 22.854301 8.516401 -38.709599
v 0.117900 9.076202 -38.808300
v 0.115200 -4.368001 7.650900
v 1.453200 -2.261701 20.609400
v 1.453200 -2.285401 20.613602
v 0.115200 -4.368001 7.650900
v 1.453200 -2.285401 20.613602
v 0.113400 -4.350000 7.647600
v 1.453200 -2.261701 20.609400
v 0.116100 2.465998 47.470200
v 0.116100 2.442298 47.474403
v 1.453200 -2.261701 20.609400
v 0.116100 2.442298 47.474403
v 1.453200 -2.285401 20.613602
v 0.116100 2.465998 47.470200
v 0.116100 -12.089099 -35.076302
v 0.118800 -12.089099 -35.076302
v 0.116100 2.465998 47.470200
v 0.118800 -12.089099 -35.076302
v 0.116100 2.442298 47.474403
v 1.293900 3.456600 0.172200
v 0.115200 -4.368001 7.650900
v 0.113400 -4.350000 7.647600
v 1.293900 3.456600 0.172200
v 0.113400 -4.350000 7.647600
v 1.293600 3.480600 0.168000
v 22.854301 8.540401 -38.713799
v 22.854301 6.243301 -5.894400
v 22.854301 6.219601 -5.890199
v 22.854301 8.540401 -38.713799
v 22.854301 6.219601 -5.890199
v 22.854301 8.516401 -38.709599
v 0.116100 -12.089099 -35.076302
v 0.116100 9.093302 -38.811302
v 0.117900 9.076202 -38.808300
v 0.116100 -12.089099 -35.076302
v 0.117900 9.076202 -38.808300
v 0.118800 -12.089099 -35.076302
v 22.854301 6.243301 -5.894400
v 1.293900 3.456600 0.172200
v 1.293600 3.480600 0.168000
v 22.854301 6.243301 -5.894400
v 1.293600 3.480600 0.168000
v 22.854301 6.219601 -5.890199
vt 0.500000 0.000000
vt 0.832086 0.000000
vt 0.500000 1.000000
vt 0.500000 1.000000
vt 1.000000 0.673344
vt 1.000000 1.000000
vt 0.500000 1.000000
vt 1.000000 0.380840
vt 1.000000 0.520529
vt 0.500000 1.000000
vt 0.832086 0.000000
vt 1.000000 0.000000
vt 0.500000 1.000000
vt 1.000000 0.000000
vt 1.000000 0.380840
vt 1.000000 0.520529
vt 1.000000 0.673344
vt 0.500000 1.000000
vt 0.500000 0.000000
vt 0.500000 1.000000
vt 0.832086 0.000000
vt 0.500000 1.000000
vt 1.000000 1.000000
vt 1.000000 0.673344
vt 0.500000 1.000000
vt 1.000000 0.520529
vt 1.000000 0.380840
vt 0.500000 1.000000
vt 1.000000 0.380840
vt 1.000000 0.000000
vt 0.500000 1.000000
vt 1.000000 0.000000
vt 0.832086 0.000000
vt 1.000000 0.520529
vt 0.500000 1.000000
vt 1.000000 0.673344
vt 0.500000 0.000000
vt 0.500000 1.000000
vt 0.832086 0.000000
vt 0.500000 1.000000
vt 1.000000 1.000000
vt 1.000000 0.673344
vt 0.500000 1.000000
vt 1.000000 0.520529
vt 1.000000 0.380840
vt 0.500000 1.000000
vt 1.000000 0.380840
vt 1.000000 0.000000
vt 0.500000 1.000000
vt 1.000000 0.000000
vt 0.832086 0.000000
vt 1.000000 0.520529
vt 0.500000 1.000000
vt 1.000000 0.673344
vt 0.500000 0.000000
vt 0.832086 0.000000
vt 0.500000 1.000000
vt 0.500000 1.000000
vt 1.000000 0.673344
vt 1.000000 1.000000
vt 0.500000 1.000000
vt 1.000000 0.380840
vt 1.000000 0.520529
vt 0.500000 1.000000
vt 0.832086 0.000000
vt 1.000000 0.000000
vt 0.500000 1.000000
vt 1.000000 0.000000
vt 1.000000 0.380840
vt 1.000000 0.520529
vt 1.000000 0.673344
vt 0.500000 1.000000
vt 1.000000 0.000000
vt 0.832086 0.000000
vt 0.832086 0.000000
vt 1.000000 0.000000
vt 0.832086 0.000000
vt 1.000000 0.000000
vt 1.000000 1.000000
vt 1.000000 0.673344
vt 1.000000 0.673344
vt 1.000000 1.000000
vt 1.000000 0.673344
vt 1.000000 1.000000
vt 0.500000 1.000000
vt 1.000000 1.000000
vt 1.000000 1.000000
vt 0.500000 1.000000
vt 1.000000 1.000000
vt 0.500000 1.000000
vt 0.500000 0.000000
vt 0.500000 1.000000
vt 0.500000 1.000000
vt 0.500000 0.000000
vt 0.500000 1.000000
vt 0.500000 0.000000
vt 1.000000 0.673344
vt 1.000000 0.520529
vt 1.000000 0.520529
vt 1.000000 0.673344
vt 1.000000 0.520529
vt 1.000000 0.673344
vt 1.000000 0.380840
vt 1.000000 0.000000
vt 1.000000 0.000000
vt 1.000000 0.380840
vt 1.000000 0.000000
vt 1.000000 0.380840
vt 0.832086 0.000000
vt 0.500000 0.000000
vt 0.500000 0.000000
vt 0.832086 0.000000
vt 0.500000 0.000000
vt 0.832086 0.000000
vt 1.000000 0.520529
vt 1.000000 0.380840
vt 1.000000 0.380840
vt 1.000000 0.520529
vt 1.000000 0.380840
vt 1.000000 0.520529
vt 0.832086 0.000000
vt 1.000000 0.000000
vt 1.000000 0.000000
vt 0.832086 0.000000
vt 1.000000 0.000000
vt 0.832086 0.000000
vt 1.000000 0.673344
vt 1.000000 1.000000
vt 1.000000 1.000000
vt 1.000000 0.673344
vt 1.000000 1.000000
vt 1.000000 0.673344
vt 1.000000 1.000000
vt 0.500000 1.000000
vt 0.500000 1.000000
vt 1.000000 1.000000
vt 0.500000 1.000000
vt 1.000000 1.000000
vt 0.500000 1.000000
vt 0.500000 0.000000
vt 0.500000 0.000000
vt 0.500000 1.000000
vt 0.500000 0.000000
vt 0.500000 1.000000
vt 1.000000 0.520529
vt 1.000000 0.673344
vt 1.000000 0.673344
vt 1.000000 0.520529
vt 1.000000 0.673344
vt 1.000000 0.520529
vt 1.000000 0.000000
vt 1.000000 0.380840
vt 1.000000 0.380840
vt 1.000000 0.000000
vt 1.000000 0.380840
vt 1.000000 0.000000
vt 0.500000 0.000000
vt 0.832086 0.000000
vt 0.832086 0.000000
vt 0.500000 0.000000
vt 0.832086 0.000000
vt 0.500000 0.000000
vt 1.000000 0.380840
vt 1.000000 0.520529
vt 1.000000 0.520529
vt 1.000000 0.380840
vt 1.000000 0.520529
vt 1.000000 0.380840
vn 1.0000 -0.0000 0.0000
vn -0.0864 0.9819 -0.1685
vn -0.1233 -0.9922 -0.0177
vn -0.0168 0.9971 0.0747
vn -0.9915 -0.1283 0.0220
vn -1.0000 -0.0000 0.0000
vn 0.0864 0.9819 -0.1685
vn 0.1233 -0.9922 -0.0177
vn 0.0168 0.9971 0.0747
vn 0.9915 -0.1283 0.0220
vn 0.1074 -0.9801 0.1672
vn 0.1208 0.9925 0.0188
vn 0.0170 -0.9971 -0.0748
vn 0.9915 0.1286 -0.0219
vn -0.1074 -0.9801 0.1672
vn -0.1208 0.9925 0.0188
vn -0.0170 -0.9971 -0.0748
vn -0.9915 0.1286 -0.0219
vn -0.0001 -0.1687 -0.9857
vn -0.9551 -0.2917 -0.0517
vn -0.9551 -0.2918 -0.0517
vn -0.9988 0.0082 0.0483
vn -0.9988 0.0085 0.0482
vn 0.9941 -0.1072 0.0189
vn 0.9941 -0.1072 0.0190
vn 0.9655 -0.0885 -0.2449
vn -1.0000 -0.0003 -0.0000
vn -1.0000 -0.0006 0.0000
vn 0.0210 -0.1736 -0.9846
vn -0.2550 -0.8067 0.5332
vn -0.2549 -0.8067 0.5332
vn -0.2549 -0.8067 0.5331
vn 0.0001 -0.1687 -0.9857
vn 0.9551 -0.2917 -0.0517
vn 0.9551 -0.2918 -0.0517
vn 0.9988 0.0085 0.0482
vn -0.9941 -0.1072 0.0189
vn -0.9941 -0.1073 0.0185
vn -0.9655 -0.0885 -0.2449
vn 1.0000 -0.0005 0.0000
vn 1.0000 -0.0003 0.0000
vn -0.0210 -0.1736 -0.9846
vn 0.2549 -0.8067 0.5331
vn 0.2549 -0.8067 0.5332
vn 0.2550 -0.8067 0.5332
usemtl paper.001
s off
f 1/1/1 2/2/1 3/3/1
f 4/4/2 5/5/2 6/6/2
f 7/7/3 8/8/3 9/9/3
f 10/10/4 11/11/4 12/12/4
f 13/13/4 14/14/4 15/15/4
f 16/16/5 17/17/5 18/18/5
f 19/19/6 20/20/6 21/21/6
f 22/22/7 23/23/7 24/24/7
f 25/25/8 26/26/8 27/27/8
f 28/28/9 29/29/9 30/30/9
f 31/31/9 32/32/9 33/33/9
f 34/34/10 35/35/10 36/36/10
f 37/37/6 38/38/6 39/39/6
f 40/40/11 41/41/11 42/42/11
f 43/43/12 44/44/12 45/45/12
f 46/46/13 47/47/13 48/48/13
f 49/49/13 50/50/13 51/51/13
f 52/52/14 53/53/14 54/54/14
f 55/55/1 56/56/1 57/57/1
f 58/58/15 59/59/15 60/60/15
f 61/61/16 62/62/16 63/63/16
f 64/64/17 65/65/17 66/66/17
f 67/67/17 68/68/17 69/69/17
f 70/70/18 71/71/18 72/72/18
f 73/73/19 74/74/19 75/75/19
f 76/76/19 77/77/19 78/78/19
f 79/79/20 80/80/20 81/81/21
f 82/82/20 83/83/20 84/84/20
f 85/85/22 86/86/22 87/87/22
f 88/88/23 89/89/23 90/90/23
f 91/91/24 92/92/25 93/93/24
f 94/94/24 95/95/24 96/96/24
f 97/97/26 98/98/26 99/99/26
f 100/100/26 101/101/26 102/102/26
f 103/103/27 104/104/27 105/105/27
f 106/106/28 107/107/28 108/108/28
f 109/109/29 110/110/29 111/111/29
f 112/112/29 113/113/29 114/114/29
f 115/115/30 116/116/31 117/117/31
f 118/118/32 119/119/31 120/120/32
f 121/121/33 122/122/33 123/123/33
f 124/124/33 125/125/33 126/126/33
f 127/127/34 128/128/34 129/129/34
f 130/130/34 131/131/35 132/132/34
f 133/133/36 134/134/36 135/135/36
f 136/136/36 137/137/36 138/138/36
f 139/139/37 140/140/38 141/141/37
f 142/142/37 143/143/37 144/144/37
f 145/145/39 146/146/39 147/147/39
f 148/148/39 149/149/39 150/150/39
f 151/151/40 152/152/40 153/153/40
f 154/154/41 155/155/41 156/156/41
f 157/157/42 158/158/42 159/159/42
f 160/160/42 161/161/42 162/162/42
f 163/163/43 164/164/43 165/165/43
f 166/166/44 167/167/45 168/168/44
